<svg width="20" height="21" viewBox="0 0 20 21" fill="none" xmlns="http://www.w3.org/2000/svg">
<path d="M8.51143 2.16471C8.69902 1.95521 8.92868 1.78762 9.18542 1.67288C9.44216 1.55814 9.72022 1.49884 10.0014 1.49884C10.2826 1.49884 10.5607 1.55814 10.8174 1.67288C11.0742 1.78762 11.3038 1.95521 11.4914 2.16471L12.1914 2.94671C12.3915 3.17021 12.6393 3.34584 12.9164 3.46061C13.1935 3.57537 13.4929 3.62633 13.7924 3.60971L14.8424 3.55171C15.1233 3.53623 15.4042 3.58016 15.6669 3.68063C15.9297 3.78111 16.1682 3.93587 16.3671 4.1348C16.5659 4.33374 16.7205 4.57238 16.8209 4.83514C16.9212 5.0979 16.965 5.37887 16.9494 5.65971L16.8914 6.70871C16.875 7.00804 16.926 7.30725 17.0408 7.5842C17.1555 7.86115 17.3311 8.10876 17.5544 8.30871L18.3364 9.00871C18.5461 9.1963 18.7138 9.42602 18.8287 9.68286C18.9435 9.9397 19.0029 10.2179 19.0029 10.4992C19.0029 10.7806 18.9435 11.0587 18.8287 11.3156C18.7138 11.5724 18.5461 11.8021 18.3364 11.9897L17.5544 12.6897C17.3309 12.8898 17.1553 13.1375 17.0405 13.4147C16.9258 13.6918 16.8748 13.9912 16.8914 14.2907L16.9494 15.3407C16.9649 15.6216 16.921 15.9025 16.8205 16.1652C16.72 16.4279 16.5653 16.6665 16.3663 16.8653C16.1674 17.0642 15.9288 17.2188 15.666 17.3192C15.4032 17.4195 15.1223 17.4633 14.8414 17.4477L13.7924 17.3897C13.4931 17.3732 13.1939 17.4243 12.9169 17.539C12.64 17.6538 12.3924 17.8294 12.1924 18.0527L11.4924 18.8347C11.3048 19.0444 11.0751 19.2121 10.8183 19.3269C10.5614 19.4418 10.2833 19.5011 10.0019 19.5011C9.72059 19.5011 9.44241 19.4418 9.18558 19.3269C8.92874 19.2121 8.69902 19.0444 8.51143 18.8347L7.81143 18.0527C7.61137 17.8292 7.3636 17.6536 7.08646 17.5388C6.80933 17.4241 6.50993 17.3731 6.21043 17.3897L5.16043 17.4477C4.87959 17.4632 4.59863 17.4193 4.33592 17.3188C4.0732 17.2183 3.83464 17.0636 3.6358 16.8646C3.43695 16.6657 3.28231 16.427 3.18196 16.1643C3.08161 15.9015 3.03781 15.6205 3.05343 15.3397L3.11143 14.2907C3.1279 13.9914 3.07686 13.6922 2.9621 13.4152C2.84734 13.1383 2.67179 12.8907 2.44843 12.6907L1.66643 11.9907C1.45676 11.8031 1.28903 11.5734 1.17419 11.3166C1.05936 11.0597 1 10.7816 1 10.5002C1 10.2189 1.05936 9.9407 1.17419 9.68386C1.28903 9.42702 1.45676 9.19731 1.66643 9.00971L2.44843 8.30971C2.67193 8.10965 2.84756 7.86188 2.96232 7.58474C3.07709 7.30761 3.12805 7.00821 3.11143 6.70871L3.05343 5.65871C3.03809 5.37795 3.08213 5.09711 3.18267 4.83451C3.28321 4.57192 3.43799 4.33348 3.63691 4.13475C3.83583 3.93601 4.07442 3.78146 4.33711 3.68117C4.5998 3.58088 4.88068 3.53711 5.16143 3.55271L6.21043 3.61071C6.50976 3.62718 6.80897 3.57615 7.08592 3.46139C7.36287 3.34662 7.61048 3.17107 7.81043 2.94771L8.51143 2.16471Z" stroke="black" stroke-width="1.35"/>
<path d="M7.50143 7.99969H7.51143V8.0097H7.50143V7.99969ZM12.5014 12.9997H12.5114V13.0097H12.5014V12.9997Z" stroke="black" stroke-width="1.35" stroke-linejoin="round"/>
<path d="M13.0014 7.49969L7.00143 13.4997" stroke="black" stroke-width="1.35" stroke-linecap="round" stroke-linejoin="round"/>
</svg>
