<svg width="48" height="48" viewBox="0 0 48 48" fill="none" xmlns="http://www.w3.org/2000/svg">
<circle cx="24" cy="24" r="24" fill="#FF8000"/>
<path d="M36.7448 23.4643H27.7997L34.1245 17.1386C33.7784 16.6915 33.4028 16.2628 32.9965 15.8565C32.5903 15.4502 32.1615 15.0736 31.7144 14.7285L25.3887 21.0543V12.1082C24.8272 12.0367 24.2587 12 23.684 12C23.1093 12 22.5407 12.0367 21.9793 12.1082V21.0543L15.6535 14.7285C15.2064 15.0736 14.7777 15.4502 14.3714 15.8565C13.9652 16.2628 13.5885 16.6915 13.2435 17.1386L19.5692 23.4643H10.6221C10.5507 24.0258 10.5139 24.5943 10.5139 25.169C10.5139 25.7437 10.5507 26.3123 10.6221 26.8737H36.7438C36.8163 26.3133 36.852 25.7437 36.852 25.169C36.853 24.5943 36.8163 24.0258 36.7448 23.4643Z" fill="white"/>
<path d="M23.6843 25.1689V25.1704L23.6828 25.1689H23.6843Z" fill="white"/>
<path d="M23.6843 25.1689V25.1704L23.6828 25.1689H23.6843Z" fill="white"/>
<path d="M23.6843 25.1689V25.1704L23.6828 25.1689H23.6843Z" fill="white"/>
<path d="M29.5607 29.9104C27.6988 29.1234 25.7205 28.7233 23.6831 28.7233C21.6456 28.7233 19.6684 29.1234 17.8054 29.9104C16.0548 30.6505 14.4787 31.7019 13.118 33.036C13.4968 33.5434 13.9153 34.0262 14.3705 34.4815C14.7278 34.8387 15.1014 35.1736 15.4913 35.4828C17.6901 33.3219 20.5952 32.1327 23.6831 32.1327C26.7699 32.1327 29.675 33.3219 31.8738 35.4839C32.2637 35.1736 32.6373 34.8398 32.9946 34.4825C33.4499 34.0272 33.8684 33.5434 34.2471 33.0371C32.8874 31.7019 31.3113 30.6505 29.5607 29.9104Z" fill="white"/>
</svg>
