<svg width="18" height="19" viewBox="0 0 18 19" fill="none" xmlns="http://www.w3.org/2000/svg">
<path d="M8.93617 17.2586H7.02128C4.53191 17.2586 2.55319 15.3345 2.55319 12.9138V10.431H3.82979V12.9138C3.82979 14.6517 5.23404 16.0172 7.02128 16.0172H8.93617V17.2586ZM16.5957 18.5H18L15.0638 11.6724H13.6596L10.7234 18.5H12.1277L12.6383 17.2586H16.0213L16.5957 18.5ZM13.2128 16.0172L14.3617 13.2862L15.5106 16.0172H13.2128ZM16.5957 9.18966H15.3191V6.7069C15.3191 4.96897 13.9149 3.60345 12.1277 3.60345H9.57447V2.36207H12.1277C14.617 2.36207 16.5957 4.28621 16.5957 6.7069V9.18966ZM7.65957 2.98276V1.74138H4.46808V0.5H3.19149V1.74138H0V2.98276H5.23404C5.10638 3.54138 4.7234 4.53448 3.82979 5.46552C3.44681 5.03103 3.12766 4.59655 2.93617 4.22414H1.46809C1.7234 4.84483 2.17021 5.58965 2.80851 6.27241C2.29787 6.7069 1.53191 7.07931 0.638298 7.38966L1.08511 8.56896C2.23404 8.13448 3.12766 7.63793 3.82979 7.14138C4.53191 7.7 5.42553 8.19655 6.57447 8.56896L7.02128 7.38966C6.12766 7.07931 5.3617 6.64483 4.78723 6.27241C6 5.03103 6.38298 3.72759 6.51064 2.98276H7.65957Z" fill="black"/>
</svg>
