<svg width="18" height="19" viewBox="0 0 18 19" fill="none" xmlns="http://www.w3.org/2000/svg">
<path d="M10.9464 18.4888C7.77393 18.4888 5.18641 15.9125 5.18641 12.7288C5.18449 11.6828 5.46855 10.6561 6.00788 9.75987C6.54722 8.86362 7.3213 8.13187 8.24643 7.64373C8.51643 7.49748 8.86519 7.59873 9.01144 7.87998C9.15769 8.14998 9.05644 8.49873 8.77519 8.64498C8.0313 9.03941 7.4089 9.62901 6.97483 10.3505C6.54076 11.0719 6.31142 11.898 6.31142 12.74C6.31142 15.2938 8.39268 17.375 10.9464 17.375C13.5002 17.375 15.5815 15.2938 15.5815 12.74C15.5815 11.8063 15.3002 10.9062 14.7827 10.1412C14.6027 9.88249 14.6702 9.53374 14.929 9.36499C15.1877 9.18499 15.5365 9.25249 15.7052 9.51124C16.3577 10.4675 16.7065 11.5925 16.7065 12.7513C16.7065 15.9238 14.1302 18.5113 10.9464 18.5113V18.4888Z" fill="black"/>
<path d="M12.9375 16.2388H8.94376C8.62876 16.2388 8.38126 15.9913 8.38126 15.6763C8.38126 15.3613 8.62876 15.1138 8.94376 15.1138H12.9375C13.2525 15.1138 13.5 15.3613 13.5 15.6763C13.5 15.9913 13.2525 16.2388 12.9375 16.2388ZM11.3513 13.9888H8.95501C8.64001 13.9888 8.39251 13.7413 8.39251 13.4263C8.39251 13.1113 8.64001 12.8638 8.95501 12.8638H11.3513C11.6663 12.8638 11.9138 13.1113 11.9138 13.4263C11.9138 13.7413 11.6663 13.9888 11.3513 13.9888Z" fill="black"/>
<path d="M9.75373 16.0925C9.43872 16.0925 9.19122 15.845 9.19122 15.53V11.6375C9.19122 10.7712 9.67498 10.0062 10.44 9.61247C10.7212 9.47747 11.0587 9.58997 11.1937 9.85997C11.3287 10.1412 11.2162 10.4787 10.9462 10.6137C10.5637 10.805 10.3162 11.1987 10.3162 11.6262V15.5188C10.3162 15.8338 10.0687 16.0813 9.75373 16.0813V16.0925Z" fill="black"/>
<path d="M12.735 11.03C9.83246 11.03 7.46994 8.66748 7.46994 5.76496C7.46994 2.86244 9.83246 0.488678 12.735 0.488678C15.6375 0.488678 18 2.85119 18 5.75371C18 8.65623 15.6375 11.0187 12.735 11.0187V11.03ZM12.735 1.61369C10.4512 1.61369 8.59495 3.46995 8.59495 5.75371C8.59495 8.03748 10.4512 9.89374 12.735 9.89374C15.0187 9.89374 16.875 8.03748 16.875 5.75371C16.875 3.46995 15.0187 1.61369 12.735 1.61369Z" fill="black"/>
<path d="M12.6563 8.84748C11.5651 8.84748 10.6876 7.95873 10.6876 6.87872V4.62871C10.6876 3.53745 11.5763 2.65994 12.6563 2.65994C13.7363 2.65994 14.6251 3.5487 14.6251 4.62871C14.6251 4.94371 14.3776 5.19121 14.0626 5.19121C13.7476 5.19121 13.5001 4.94371 13.5001 4.62871C13.5001 4.16745 13.1176 3.78495 12.6563 3.78495C12.1951 3.78495 11.8126 4.16745 11.8126 4.62871V6.87872C11.8126 7.33997 12.1951 7.72248 12.6563 7.72248C13.1176 7.72248 13.5001 7.33997 13.5001 6.87872C13.5001 6.56372 13.7476 6.31622 14.0626 6.31622C14.3776 6.31622 14.6251 6.56372 14.6251 6.87872C14.6251 7.96998 13.7363 8.84748 12.6563 8.84748Z" fill="black"/>
<path d="M12.3751 5.50622H10.6876C10.3726 5.50622 10.1251 5.25872 10.1251 4.94372C10.1251 4.62872 10.3726 4.38122 10.6876 4.38122H12.3751C12.6901 4.38122 12.9376 4.62872 12.9376 4.94372C12.9376 5.25872 12.6901 5.50622 12.3751 5.50622ZM12.3751 7.23874H10.6876C10.3726 7.23874 10.1251 6.99123 10.1251 6.67623C10.1251 6.36123 10.3726 6.11373 10.6876 6.11373H12.3751C12.6901 6.11373 12.9376 6.36123 12.9376 6.67623C12.9376 6.99123 12.6901 7.23874 12.3751 7.23874ZM6.07504 15.5638C2.72252 15.5638 0 12.8413 0 9.48875C0.000367227 8.4894 0.247126 7.50556 0.718429 6.62433C1.18973 5.7431 1.87104 4.99167 2.70203 4.43656C3.53303 3.88145 4.48807 3.5398 5.4826 3.44184C6.47714 3.34388 7.48048 3.49265 8.40381 3.87496C8.69631 3.99871 8.83131 4.32497 8.70756 4.60622C8.58381 4.89872 8.25756 5.03372 7.9763 4.90997C7.22393 4.60094 6.40706 4.48181 5.59777 4.56308C4.78847 4.64435 4.0116 4.92352 3.3357 5.37598C2.65979 5.82844 2.10561 6.44027 1.72204 7.15752C1.33847 7.87477 1.13729 8.67538 1.13626 9.48875C1.13626 12.2113 3.36377 14.4388 6.08629 14.4388C6.40129 14.4388 6.64879 14.6863 6.64879 15.0013C6.64879 15.3163 6.40129 15.5638 6.08629 15.5638H6.07504Z" fill="black"/>
<path d="M6.15375 11.1763C5.83875 11.1763 5.59125 10.9288 5.59125 10.6138V5.94498C5.59125 5.62998 5.83875 5.38248 6.15375 5.38248C6.46875 5.38248 6.71626 5.62998 6.71626 5.94498V10.6138C6.71626 10.9288 6.46875 11.1763 6.15375 11.1763Z" fill="black"/>
<path d="M5.96262 10.0512C5.44644 10.0512 4.9514 9.8462 4.5864 9.4812C4.22141 9.11621 4.01636 8.62117 4.01636 8.10498C4.01636 7.5888 4.22141 7.09376 4.5864 6.72877C4.9514 6.36377 5.44644 6.15872 5.96262 6.15872H6.35637C7.42513 6.15872 8.30264 7.02498 8.30264 8.10498V8.30749C8.30264 8.62249 8.05513 8.86999 7.74013 8.86999C7.42513 8.86999 7.17763 8.62249 7.17763 8.30749V8.10498C7.17763 7.65498 6.80638 7.28373 6.35637 7.28373H5.96262C5.51262 7.28373 5.14137 7.65498 5.14137 8.10498C5.14137 8.55499 5.51262 8.92624 5.96262 8.92624C6.27762 8.92624 6.52512 9.17374 6.52512 9.48874C6.52512 9.80375 6.27762 10.0512 5.96262 10.0512ZM5.62512 12.7738C5.62512 12.7738 5.53512 12.7738 5.49012 12.7513C4.62386 12.5375 4.01636 11.7613 4.01636 10.8725V10.67C4.01636 10.355 4.26386 10.1075 4.57886 10.1075C4.89386 10.1075 5.14137 10.355 5.14137 10.67V10.8725C5.14137 11.2438 5.40012 11.57 5.76012 11.66C6.06387 11.7388 6.24387 12.0425 6.16512 12.3463C6.09762 12.605 5.87262 12.7738 5.62512 12.7738Z" fill="black"/>
</svg>
