<svg width="17" height="20" viewBox="0 0 17 20" fill="none" xmlns="http://www.w3.org/2000/svg">
<path d="M0.697144 4.12988V16.2119C0.697144 16.9513 0.990894 17.6605 1.51377 18.1834C2.03665 18.7063 2.74583 19 3.48529 19H12.7791C13.5186 19 14.2278 18.7063 14.7507 18.1834C15.2735 17.6605 15.5673 16.9513 15.5673 16.2119V11.565M0.697144 4.12988V3.2005M0.697144 4.12988H12.7791C13.5186 4.12988 14.2278 4.42364 14.7507 4.94651C15.2735 5.46939 15.5673 6.17857 15.5673 6.91804V7.84742" stroke="black" stroke-width="1.39408" stroke-linecap="round"/>
<path d="M5.34406 10.6356C5.34406 10.0841 5.50758 9.54506 5.81394 9.08655C6.12031 8.62804 6.55576 8.27068 7.06523 8.05965C7.5747 7.84862 8.1353 7.79341 8.67615 7.90099C9.217 8.00857 9.7138 8.27411 10.1037 8.66404C10.4937 9.05397 10.7592 9.55078 10.8668 10.0916C10.9744 10.6325 10.9192 11.1931 10.7081 11.7025C10.4971 12.212 10.1397 12.6475 9.68122 12.9538C9.22271 13.2602 8.68365 13.4237 8.13221 13.4237" stroke="black" stroke-width="1.39408" stroke-linecap="round"/>
<path d="M13.7084 4.12986V4.8269H14.4055V4.12986H13.7084ZM1.69151 4.8269H13.7084V3.43282H1.69244L1.69151 4.8269ZM14.4055 4.12986V2.55548H13.0114V4.12986H14.4055ZM11.4881 0.0256994L1.45359 1.45881L1.65062 2.83894L11.6852 1.40676L11.4881 0.0256994ZM1.45359 1.45881C1.04992 1.51616 0.680547 1.71739 0.413464 2.02545C0.146381 2.33352 -0.000437506 2.72769 3.16384e-05 3.13542H1.39411C1.39387 3.06346 1.41974 2.99386 1.4669 2.93951C1.51407 2.88517 1.57934 2.84884 1.65062 2.83894L1.45359 1.45881ZM14.4055 2.55548C14.4054 2.18933 14.3267 1.82746 14.1746 1.49437C14.0226 1.16128 13.8007 0.864762 13.5241 0.624878C13.2475 0.384995 12.9225 0.207351 12.5712 0.103975C12.22 0.000599491 11.8506 -0.0260949 11.4881 0.0256994L11.6852 1.40676C11.8499 1.3832 12.0178 1.39438 12.1775 1.44134C12.3372 1.4883 12.4849 1.56902 12.6106 1.67803C12.7364 1.78705 12.8372 1.92181 12.9064 2.07319C12.9755 2.22458 13.0113 2.38905 13.0114 2.55548H14.4055ZM1.69244 3.43282C1.65323 3.43294 1.61438 3.42531 1.57813 3.41036C1.54188 3.39541 1.50894 3.37344 1.48121 3.34571C1.45349 3.31799 1.43152 3.28505 1.41657 3.2488C1.40162 3.21255 1.39398 3.17463 1.39411 3.13542H3.16384e-05C-9.05295e-05 3.3577 0.0436015 3.5769 0.12861 3.78229C0.213618 3.98768 0.338275 4.17429 0.495454 4.33147C0.652633 4.48865 0.839251 4.61331 1.04464 4.69832C1.25003 4.78333 1.46923 4.82702 1.69151 4.8269L1.69244 3.43282Z" fill="black"/>
<path d="M6.27344 16.2119H9.99097" stroke="black" stroke-width="1.39408" stroke-linecap="round"/>
</svg>
