<svg width="136" height="37" viewBox="0 0 136 37" fill="none" xmlns="http://www.w3.org/2000/svg">
<g clip-path="url(#clip0_3_155)">
<path d="M66.968 22.7392H49.5142V2.49867H66.7628V6.4184H54.5079V10.3972H65.7759V14.3169H54.5079V18.8179H66.9664V22.7392H66.968Z" fill="black"/>
<path d="M103.714 23.2334C97.1322 23.2334 93.7144 20.8337 93.4626 16.0328H98.1502C98.1595 16.0328 98.1673 16.0405 98.1688 16.0499C98.2496 17.1642 98.7237 17.9615 99.5909 18.4434C100.463 18.9267 101.885 19.1692 103.86 19.1692C107.113 19.1692 108.739 18.3377 108.739 16.6716C108.739 15.4903 107.839 14.7941 106.038 14.5811L100.172 13.8553C98.0616 13.6237 96.5229 13.0471 95.5546 12.127C94.5863 11.2085 94.103 9.92471 94.103 8.27879C94.103 6.24588 94.9112 4.69167 96.5276 3.6177C98.1424 2.54219 100.5 2.00443 103.598 2.00443C109.619 2.00443 112.813 4.20209 113.181 8.59585H108.476C108.341 7.68664 107.89 7.03231 107.126 6.63599C106.361 6.23966 105.155 6.04072 103.511 6.04072C100.491 6.04072 98.9801 6.74789 98.9801 8.16067C98.9801 9.1476 99.8023 9.7382 101.448 9.93248L107.286 10.6583C111.526 11.2007 113.646 13.1652 113.646 16.5534C113.646 18.7029 112.794 20.3535 111.091 21.5052C109.387 22.6568 106.928 23.2334 103.714 23.2334Z" fill="black"/>
<path d="M130.599 2.49867H136L127.607 17.6289V22.7392H122.612V17.744L114.191 2.49867H119.535L124.696 12.0571C124.772 12.1985 124.92 12.2856 125.08 12.2856H125.139C125.301 12.2856 125.448 12.197 125.523 12.054L130.599 2.49867Z" fill="black"/>
<path d="M92.7835 22.7392H87.7308L86.3071 18.4418H75.5924L74.1687 22.7392H69.0864L75.8239 2.49867H86.0755L92.7835 22.7392ZM79.5416 6.59402L76.957 14.376H84.9425L82.3579 6.59402H79.5416Z" fill="black"/>
<path d="M101.246 31.2408V31.5221C101.773 31.6557 102.193 31.9168 102.507 32.3054C102.819 32.694 102.976 33.1649 102.976 33.7197C102.976 34.6398 102.656 35.3112 102.017 35.7309C101.378 36.1505 100.362 36.3603 98.9676 36.3603H93.7268V27.018H98.9148C100.085 27.018 100.977 27.2122 101.59 27.6008C102.202 27.9893 102.508 28.5644 102.508 29.3229C102.505 30.2445 102.085 30.8833 101.246 31.2408ZM96.0177 28.7882V30.7714H98.7516C99.7168 30.7714 100.2 30.4326 100.2 29.7534C100.2 29.1099 99.6779 28.7882 98.6319 28.7882H96.0177ZM96.0177 32.4064V34.6056H98.8464C100.052 34.6056 100.655 34.2342 100.655 33.4928C100.655 32.7686 100.043 32.4064 98.8184 32.4064H96.0177Z" fill="black"/>
<path d="M114.824 36.3619H112.491L111.835 34.3787H106.888L106.232 36.3619H103.887L106.997 27.0195H111.729L114.824 36.3619ZM108.711 28.9079L107.519 32.5012H111.206L110.012 28.9079H108.711Z" fill="black"/>
<path d="M123.711 36.3619H116.285V27.0195H118.59V34.472H123.709V36.3619H123.711Z" fill="black"/>
<path d="M127.812 36.3619H125.507V27.0195H127.812V36.3619Z" fill="black"/>
<path d="M39.9387 18.061H26.3191L35.949 8.42955C35.4221 7.7488 34.8502 7.09603 34.2316 6.47745C33.613 5.85887 32.9602 5.28537 32.2795 4.76004L22.648 14.3915V0.770376C21.7932 0.661581 20.9275 0.605629 20.0525 0.605629C19.1775 0.605629 18.3118 0.661581 17.4569 0.770376V14.3915L7.82547 4.76004C7.14472 5.28537 6.49195 5.85887 5.87338 6.47745C5.2548 7.09603 4.68129 7.7488 4.15597 8.42955L13.7874 18.061H0.164747C0.0559517 18.9158 0 19.7815 0 20.6566C0 21.5316 0.0559517 22.3973 0.164747 23.2521H39.9371C40.0474 22.3988 40.1018 21.5316 40.1018 20.6566C40.1034 19.7815 40.0475 18.9158 39.9387 18.061Z" fill="#FF8000"/>
<path d="M20.0536 20.6565V20.6591L20.051 20.6565H20.0536Z" fill="#FF8000"/>
<path d="M20.0536 20.6565V20.6591L20.051 20.6565H20.0536Z" fill="#FF8000"/>
<path d="M20.0536 20.6565V20.6591L20.051 20.6565H20.0536Z" fill="#FF8000"/>
<path d="M29.0001 27.8759C26.1652 26.6776 23.1532 26.0683 20.051 26.0683C16.9488 26.0683 13.9382 26.6776 11.1018 27.8759C8.43632 29.0027 6.03661 30.6035 3.96484 32.6349C4.54146 33.4073 5.17869 34.1425 5.87187 34.8357C6.41584 35.3796 6.98468 35.8894 7.57839 36.3603C10.9262 33.0701 15.3495 31.2594 20.051 31.2594C24.7509 31.2594 29.1742 33.0701 32.522 36.3619C33.1157 35.8894 33.6845 35.3812 34.2285 34.8372C34.9217 34.144 35.5589 33.4073 36.1355 32.6364C34.0653 30.6035 31.6656 29.0027 29.0001 27.8759Z" fill="#FF8000"/>
<path d="M90.4196 27.0133H49.48V36.3619H90.4196V27.0133Z" fill="#C5C4C4"/>
</g>
<defs>
<clipPath id="clip0_3_155">
<rect width="136" height="35.7563" fill="white" transform="translate(0 0.605629)"/>
</clipPath>
</defs>
</svg>
