<svg width="70" height="70" viewBox="0 0 70 70" fill="none" xmlns="http://www.w3.org/2000/svg">
<rect width="69.9132" height="69.9132" rx="34.9566" fill="#FF8000"/>
<path d="M19.1187 31.6919C17.8886 32.1019 17.7595 33.791 18.913 34.384L27.0175 38.5429C27.1768 38.6246 27.3555 38.661 27.5341 38.6479C27.7127 38.6349 27.8843 38.573 28.0301 38.469L37.589 31.6422C38.0376 31.3219 38.5899 31.8741 38.2696 32.3228L31.4428 41.8803C31.3385 42.0261 31.2764 42.1978 31.2633 42.3765C31.2501 42.5553 31.2864 42.7342 31.3682 42.8936L35.5292 51.0002C36.1214 52.1543 37.8105 52.0252 38.2213 50.7945L46.849 24.9169C47.2307 23.7717 46.1421 22.6832 44.9963 23.0642L19.1187 31.6919Z" fill="#F8F8F8"/>
</svg>
