<svg width="55" height="56" viewBox="0 0 55 56" fill="none" xmlns="http://www.w3.org/2000/svg">
<path d="M33.6563 54.9788C24.1343 54.9788 16.3682 47.2465 16.3682 37.6908C16.3624 34.5513 17.215 31.47 18.8337 28.78C20.4525 26.09 22.7758 23.8937 25.5525 22.4286C26.3629 21.9897 27.4096 22.2936 27.8486 23.1377C28.2875 23.9481 27.9836 24.9948 27.1395 25.4338C24.9068 26.6176 23.0387 28.3872 21.7359 30.5526C20.4331 32.718 19.7448 35.1974 19.7448 37.7245C19.7448 45.3894 25.9914 51.636 33.6563 51.636C41.3211 51.636 47.5678 45.3894 47.5678 37.7245C47.5678 34.922 46.7236 32.2207 45.1704 29.9246C44.6302 29.148 44.8328 28.1013 45.6094 27.5948C46.386 27.0545 47.4327 27.2571 47.9392 28.0337C49.8976 30.9038 50.9444 34.2804 50.9444 37.7583C50.9444 47.2802 43.212 55.0464 33.6563 55.0464V54.9788Z" fill="#FF8000"/>
<path d="M39.6322 48.2257H27.6453C26.6999 48.2257 25.957 47.4828 25.957 46.5374C25.957 45.5919 26.6999 44.8491 27.6453 44.8491H39.6322C40.5776 44.8491 41.3205 45.5919 41.3205 46.5374C41.3205 47.4828 40.5776 48.2257 39.6322 48.2257ZM34.8712 41.4725H27.6791C26.7336 41.4725 25.9908 40.7296 25.9908 39.7842C25.9908 38.8388 26.7336 38.0959 27.6791 38.0959H34.8712C35.8166 38.0959 36.5595 38.8388 36.5595 39.7842C36.5595 40.7296 35.8166 41.4725 34.8712 41.4725Z" fill="#FF8000"/>
<path d="M30.077 47.7867C29.1315 47.7867 28.3887 47.0438 28.3887 46.0984V34.4154C28.3887 31.8154 29.8406 29.5194 32.1367 28.3376C32.9808 27.9324 33.9938 28.27 34.399 29.0804C34.8042 29.9245 34.4665 30.9375 33.6561 31.3427C32.5081 31.9167 31.7653 33.0985 31.7653 34.3816V46.0646C31.7653 47.01 31.0224 47.7529 30.077 47.7529V47.7867Z" fill="#FF8000"/>
<path d="M39.0231 32.5921C30.3115 32.5921 23.2207 25.5013 23.2207 16.7898C23.2207 8.07818 30.3115 0.953598 39.0231 0.953598C47.7347 0.953598 54.8255 8.04441 54.8255 16.756C54.8255 25.4676 47.7347 32.5584 39.0231 32.5584V32.5921ZM39.0231 4.33018C32.1686 4.33018 26.5973 9.90153 26.5973 16.756C26.5973 23.6104 32.1686 29.1818 39.0231 29.1818C45.8775 29.1818 51.4489 23.6104 51.4489 16.756C51.4489 9.90153 45.8775 4.33018 39.0231 4.33018Z" fill="#FF8000"/>
<path d="M38.7879 26.0415C35.5126 26.0415 32.8789 23.374 32.8789 20.1325V13.3794C32.8789 10.1041 35.5464 7.47035 38.7879 7.47035C42.0294 7.47035 44.6969 10.1379 44.6969 13.3794C44.6969 14.3248 43.9541 15.0677 43.0086 15.0677C42.0632 15.0677 41.3204 14.3248 41.3204 13.3794C41.3204 11.995 40.1723 10.8469 38.7879 10.8469C37.4035 10.8469 36.2555 11.995 36.2555 13.3794V20.1325C36.2555 21.5169 37.4035 22.665 38.7879 22.665C40.1723 22.665 41.3204 21.5169 41.3204 20.1325C41.3204 19.1871 42.0632 18.4442 43.0086 18.4442C43.9541 18.4442 44.6969 19.1871 44.6969 20.1325C44.6969 23.4078 42.0294 26.0415 38.7879 26.0415Z" fill="#FF8000"/>
<path d="M37.9441 16.0131H32.8793C31.9338 16.0131 31.191 15.2703 31.191 14.3248C31.191 13.3794 31.9338 12.6366 32.8793 12.6366H37.9441C38.8896 12.6366 39.6324 13.3794 39.6324 14.3248C39.6324 15.2703 38.8896 16.0131 37.9441 16.0131ZM37.9441 21.2131H32.8793C31.9338 21.2131 31.191 20.4702 31.191 19.5248C31.191 18.5793 31.9338 17.8365 32.8793 17.8365H37.9441C38.8896 17.8365 39.6324 18.5793 39.6324 19.5248C39.6324 20.4702 38.8896 21.2131 37.9441 21.2131ZM19.0353 46.1997C8.97308 46.1997 0.801758 38.0284 0.801758 27.9662C0.80286 24.9668 1.54348 22.0139 2.95804 19.369C4.3726 16.7241 6.41747 14.4688 8.9116 12.8027C11.4057 11.1366 14.2722 10.1111 17.2572 9.81712C20.2421 9.52312 23.2536 9.96962 26.0248 11.1171C26.9027 11.4885 27.3079 12.4677 26.9365 13.3119C26.5651 14.1898 25.5858 14.595 24.7417 14.2235C22.4835 13.296 20.0318 12.9385 17.6028 13.1824C15.1738 13.4263 12.8421 14.2642 10.8135 15.6222C8.7848 16.9802 7.1215 18.8166 5.97025 20.9693C4.81901 23.122 4.21521 25.525 4.2121 27.9662C4.2121 36.1375 10.8977 42.8232 19.069 42.8232C20.0145 42.8232 20.7573 43.566 20.7573 44.5115C20.7573 45.4569 20.0145 46.1997 19.069 46.1997H19.0353Z" fill="#FF8000"/>
<path d="M19.2713 33.0312C18.3259 33.0312 17.583 32.2883 17.583 31.3429V17.3301C17.583 16.3846 18.3259 15.6418 19.2713 15.6418C20.2167 15.6418 20.9596 16.3846 20.9596 17.3301V31.3429C20.9596 32.2883 20.2167 33.0312 19.2713 33.0312Z" fill="#FF8000"/>
<path d="M18.697 29.6545C17.1477 29.6545 15.6619 29.0391 14.5664 27.9436C13.4709 26.8481 12.8555 25.3623 12.8555 23.813C12.8555 22.2638 13.4709 20.778 14.5664 19.6825C15.6619 18.587 17.1477 17.9716 18.697 17.9716H19.8788C23.0865 17.9716 25.7202 20.5715 25.7202 23.813V24.4208C25.7202 25.3663 24.9774 26.1091 24.0319 26.1091C23.0865 26.1091 22.3437 25.3663 22.3437 24.4208V23.813C22.3437 22.4624 21.2294 21.3481 19.8788 21.3481H18.697C17.3463 21.3481 16.232 22.4624 16.232 23.813C16.232 25.1637 17.3463 26.2779 18.697 26.2779C19.6424 26.2779 20.3852 27.0208 20.3852 27.9662C20.3852 28.9117 19.6424 29.6545 18.697 29.6545ZM17.684 37.8258C17.684 37.8258 17.4139 37.8258 17.2788 37.7583C14.6788 37.1168 12.8555 34.7869 12.8555 32.1194V31.5116C12.8555 30.5662 13.5983 29.8233 14.5438 29.8233C15.4892 29.8233 16.232 30.5662 16.232 31.5116V32.1194C16.232 33.2337 17.0087 34.2129 18.0892 34.483C19.0008 34.7194 19.5411 35.6311 19.3047 36.5427C19.1021 37.3194 18.4268 37.8258 17.684 37.8258Z" fill="#FF8000"/>
</svg>
