<svg width="59" height="60" viewBox="0 0 59 60" fill="none" xmlns="http://www.w3.org/2000/svg">
<path d="M24.6462 4.98263C25.2093 4.35383 25.8986 3.85083 26.6691 3.50646C27.4397 3.16209 28.2743 2.9841 29.1183 2.9841C29.9623 2.9841 30.7969 3.16209 31.5675 3.50646C32.338 3.85083 33.0273 4.35383 33.5904 4.98263L35.6913 7.32972C36.2918 8.00051 37.0355 8.52766 37.8672 8.87211C38.699 9.21657 39.5976 9.36952 40.4966 9.31963L43.648 9.14555C44.4909 9.09909 45.3342 9.23094 46.1227 9.5325C46.9112 9.83406 47.6272 10.2985 48.224 10.8956C48.8208 11.4927 49.285 12.209 49.5861 12.9976C49.8873 13.7863 50.0188 14.6296 49.9719 15.4725L49.7978 18.6209C49.7484 19.5193 49.9016 20.4174 50.246 21.2486C50.5905 22.0798 51.1174 22.823 51.7878 23.4231L54.1348 25.5241C54.7641 26.0871 55.2676 26.7766 55.6122 27.5475C55.9569 28.3183 56.1351 29.1533 56.1351 29.9977C56.1351 30.8421 55.9569 31.677 55.6122 32.4478C55.2676 33.2187 54.7641 33.9082 54.1348 34.4712L51.7878 36.5722C51.117 37.1727 50.5898 37.9163 50.2454 38.7481C49.9009 39.5799 49.748 40.4785 49.7978 41.3774L49.9719 44.5289C50.0184 45.3718 49.8865 46.215 49.585 47.0035C49.2834 47.792 48.8189 48.5081 48.2218 49.1049C47.6248 49.7017 46.9085 50.1658 46.1199 50.467C45.3312 50.7682 44.4879 50.8996 43.645 50.8528L40.4966 50.6787C39.5981 50.6293 38.7001 50.7824 37.8689 51.1269C37.0376 51.4713 36.2945 51.9982 35.6943 52.6686L33.5934 55.0157C33.0303 55.645 32.3409 56.1484 31.57 56.4931C30.7991 56.8378 29.9642 57.0159 29.1198 57.0159C28.2754 57.0159 27.4405 56.8378 26.6696 56.4931C25.8988 56.1484 25.2093 55.645 24.6462 55.0157L22.5453 52.6686C21.9448 51.9978 21.2012 51.4707 20.3694 51.1262C19.5376 50.7818 18.639 50.6288 17.7401 50.6787L14.5886 50.8528C13.7457 50.8992 12.9024 50.7674 12.1139 50.4658C11.3254 50.1643 10.6094 49.6998 10.0126 49.1027C9.4158 48.5056 8.95165 47.7894 8.65046 47.0007C8.34928 46.2121 8.21783 45.3688 8.26469 44.5259L8.43877 41.3774C8.4882 40.479 8.33503 39.581 7.99059 38.7497C7.64614 37.9185 7.11925 37.1753 6.44886 36.5752L4.10177 34.4742C3.47248 33.9112 2.96905 33.2217 2.62438 32.4508C2.27972 31.68 2.10156 30.8451 2.10156 30.0007C2.10156 29.1563 2.27972 28.3213 2.62438 27.5505C2.96905 26.7796 3.47248 26.0901 4.10177 25.5271L6.44886 23.4261C7.11965 22.8257 7.6468 22.082 7.99125 21.2502C8.33571 20.4184 8.48866 19.5198 8.43877 18.6209L8.26469 15.4695C8.21866 14.6268 8.35084 13.7839 8.6526 12.9957C8.95435 12.2076 9.41891 11.4919 10.0159 10.8955C10.613 10.299 11.3291 9.83512 12.1175 9.53411C12.9059 9.2331 13.749 9.10173 14.5916 9.14855L17.7401 9.32264C18.6385 9.37206 19.5365 9.21889 20.3677 8.87445C21.199 8.53001 21.9421 8.00311 22.5423 7.33272L24.6462 4.98263Z" stroke="#FF8000" stroke-width="4.05187"/>
<path d="M21.6143 22.4957H21.6443V22.5257H21.6143V22.4957ZM36.6212 37.5026H36.6512V37.5326H36.6212V37.5026Z" stroke="#FF8000" stroke-width="4.05187" stroke-linejoin="round"/>
<path d="M38.1226 20.9949L20.1143 39.0032" stroke="#FF8000" stroke-width="4.05187" stroke-linecap="round" stroke-linejoin="round"/>
</svg>
