<svg width="46" height="46" viewBox="0 0 46 46" fill="none" xmlns="http://www.w3.org/2000/svg">
<rect x="0.5" y="0.5" width="45" height="45" rx="22.5" stroke="white"/>
<path d="M18.8 13H27.2C30.4 13 33 15.6 33 18.8V27.2C33 28.7383 32.3889 30.2135 31.3012 31.3012C30.2135 32.3889 28.7383 33 27.2 33H18.8C15.6 33 13 30.4 13 27.2V18.8C13 17.2617 13.6111 15.7865 14.6988 14.6988C15.7865 13.6111 17.2617 13 18.8 13ZM18.6 15C17.6452 15 16.7295 15.3793 16.0544 16.0544C15.3793 16.7295 15 17.6452 15 18.6V27.4C15 29.39 16.61 31 18.6 31H27.4C28.3548 31 29.2705 30.6207 29.9456 29.9456C30.6207 29.2705 31 28.3548 31 27.4V18.6C31 16.61 29.39 15 27.4 15H18.6ZM28.25 16.5C28.5815 16.5 28.8995 16.6317 29.1339 16.8661C29.3683 17.1005 29.5 17.4185 29.5 17.75C29.5 18.0815 29.3683 18.3995 29.1339 18.6339C28.8995 18.8683 28.5815 19 28.25 19C27.9185 19 27.6005 18.8683 27.3661 18.6339C27.1317 18.3995 27 18.0815 27 17.75C27 17.4185 27.1317 17.1005 27.3661 16.8661C27.6005 16.6317 27.9185 16.5 28.25 16.5ZM23 18C24.3261 18 25.5979 18.5268 26.5355 19.4645C27.4732 20.4021 28 21.6739 28 23C28 24.3261 27.4732 25.5979 26.5355 26.5355C25.5979 27.4732 24.3261 28 23 28C21.6739 28 20.4021 27.4732 19.4645 26.5355C18.5268 25.5979 18 24.3261 18 23C18 21.6739 18.5268 20.4021 19.4645 19.4645C20.4021 18.5268 21.6739 18 23 18ZM23 20C22.2044 20 21.4413 20.3161 20.8787 20.8787C20.3161 21.4413 20 22.2044 20 23C20 23.7956 20.3161 24.5587 20.8787 25.1213C21.4413 25.6839 22.2044 26 23 26C23.7956 26 24.5587 25.6839 25.1213 25.1213C25.6839 24.5587 26 23.7956 26 23C26 22.2044 25.6839 21.4413 25.1213 20.8787C24.5587 20.3161 23.7956 20 23 20Z" fill="white"/>
</svg>
