<svg width="102" height="28" viewBox="0 0 102 28" fill="none" xmlns="http://www.w3.org/2000/svg">
<g clip-path="url(#clip0_49_34)">
<path d="M50.2266 17.0697H37.1362V1.88931H50.0727V4.82911H40.8815V7.8132H49.3325V10.753H40.8815V14.1288H50.2254V17.0697H50.2266Z" fill="white"/>
<path d="M77.7861 17.4404C72.8495 17.4404 70.2862 15.6406 70.0974 12.0399H73.613C73.62 12.0399 73.6259 12.0457 73.627 12.0527C73.6877 12.8885 74.0432 13.4865 74.6936 13.8478C75.3476 14.2103 76.4141 14.3922 77.8957 14.3922C80.3354 14.3922 81.5547 13.7686 81.5547 12.519C81.5547 11.6331 80.8798 11.1109 79.5288 10.9512L75.1296 10.4068C73.5466 10.2331 72.3926 9.80065 71.6664 9.11058C70.9402 8.42168 70.5777 7.45884 70.5777 6.2244C70.5777 4.69972 71.1838 3.53406 72.3961 2.72859C73.6072 1.92195 75.3755 1.51863 77.6987 1.51863C82.2145 1.51863 84.6099 3.16688 84.8862 6.4622H81.3577C81.2563 5.78029 80.9182 5.28954 80.3447 4.9923C79.7712 4.69506 78.8667 4.54585 77.6334 4.54585C75.3685 4.54585 74.2355 5.07623 74.2355 6.13581C74.2355 6.87601 74.8521 7.31896 76.0866 7.46467L80.4648 8.00903C83.6447 8.41585 85.2347 9.88924 85.2347 12.4304C85.2347 14.0425 84.5959 15.2804 83.3183 16.1442C82.0408 17.0079 80.1967 17.4404 77.7861 17.4404Z" fill="white"/>
<path d="M97.9499 1.88931H102.001L95.706 13.237V17.0697H91.9596V13.3233L85.644 1.88931H89.6516L93.5227 9.05813C93.5799 9.1642 93.6906 9.22948 93.8107 9.22948H93.855C93.9762 9.22948 94.0869 9.16304 94.1429 9.0558L97.9499 1.88931Z" fill="white"/>
<path d="M69.5883 17.0697H65.7987L64.731 13.8467H56.6949L55.6271 17.0697H51.8154L56.8686 1.88931H64.5573L69.5883 17.0697ZM59.6568 4.96083L57.7183 10.7973H63.7075L61.769 4.96083H59.6568Z" fill="white"/>
<path d="M75.9349 23.4459V23.6569C76.33 23.7571 76.6448 23.9529 76.8802 24.2444C77.1145 24.5358 77.2323 24.889 77.2323 25.3051C77.2323 25.9952 76.9921 26.4987 76.513 26.8135C76.034 27.1282 75.2716 27.2856 74.226 27.2856H70.2954V20.2788H74.1864C75.0641 20.2788 75.7332 20.4245 76.1925 20.7159C76.6518 21.0073 76.8814 21.4386 76.8814 22.0075C76.8791 22.6987 76.5643 23.1778 75.9349 23.4459ZM72.0136 21.6065V23.0938H74.064C74.7879 23.0938 75.1504 22.8397 75.1504 22.3303C75.1504 21.8478 74.7587 21.6065 73.9742 21.6065H72.0136ZM72.0136 24.3201V25.9695H74.1351C75.0397 25.9695 75.4919 25.6909 75.4919 25.1349C75.4919 24.5917 75.0327 24.3201 74.1141 24.3201H72.0136Z" fill="white"/>
<path d="M86.1178 27.2867H84.3681L83.8762 25.7994H80.1659L79.674 27.2867H77.915L80.2475 20.2799H83.797L86.1178 27.2867ZM81.5333 21.6962L80.6392 24.3912H83.4041L82.5089 21.6962H81.5333Z" fill="white"/>
<path d="M92.7831 27.2867H87.2136V20.2799H88.9423V25.8693H92.782V27.2867H92.7831Z" fill="white"/>
<path d="M95.8595 27.2867H94.1309V20.2799H95.8595V27.2867Z" fill="white"/>
<path d="M29.954 13.5611H19.7393L26.9617 6.33747C26.5666 5.82691 26.1376 5.33734 25.6737 4.8734C25.2098 4.40947 24.7202 3.97934 24.2096 3.58535L16.986 10.8089V0.593096C16.3449 0.5115 15.6956 0.469536 15.0394 0.469536C14.3831 0.469536 13.7338 0.5115 13.0927 0.593096V10.8089L5.8691 3.58535C5.35854 3.97934 4.86897 4.40947 4.40503 4.8734C3.9411 5.33734 3.51097 5.82691 3.11698 6.33747L10.3406 13.5611H0.12356C0.0419638 14.2022 0 14.8515 0 15.5077C0 16.164 0.0419638 16.8133 0.12356 17.4544H29.9528C30.0356 16.8144 30.0764 16.164 30.0764 15.5077C30.0776 14.8515 30.0356 14.2022 29.954 13.5611Z" fill="#FF8000"/>
<path d="M15.0407 15.5077V15.5103L15.0381 15.5077H15.0407Z" fill="#FF8000"/>
<path d="M15.0407 15.5077V15.5103L15.0381 15.5077H15.0407Z" fill="#FF8000"/>
<path d="M15.0407 15.5077V15.5103L15.0381 15.5077H15.0407Z" fill="#FF8000"/>
<path d="M21.7501 20.9222C19.6239 20.0235 17.3649 19.5666 15.0382 19.5666C12.7116 19.5666 10.4537 20.0235 8.32635 20.9222C6.32724 21.7673 4.52746 22.968 2.97363 24.4915C3.40609 25.0708 3.88401 25.6222 4.4039 26.1421C4.81188 26.55 5.23851 26.9324 5.68379 27.2856C8.19463 24.8179 11.5121 23.4599 15.0382 23.4599C18.5632 23.4599 21.8807 24.8179 24.3915 27.2867C24.8368 26.9324 25.2634 26.5512 25.6714 26.1432C26.1913 25.6233 26.6692 25.0708 27.1017 24.4926C25.549 22.968 23.7492 21.7673 21.7501 20.9222Z" fill="#FF8000"/>
<path d="M67.7047 20H37V27.0115H67.7047V20Z" fill="white"/>
</g>
<defs>
<clipPath id="clip0_49_34">
<rect width="102" height="26.8172" fill="white" transform="translate(0 0.469536)"/>
</clipPath>
</defs>
</svg>
