<svg width="22" height="30" viewBox="0 0 22 30" fill="none" xmlns="http://www.w3.org/2000/svg">
<path d="M11.1352 18.806C9.8292 18.806 8.71913 18.3489 7.80495 17.4347C6.89077 16.5205 6.43368 15.4104 6.43368 14.1045V4.70149C6.43368 3.39552 6.89077 2.28545 7.80495 1.37127C8.71913 0.457089 9.8292 0 11.1352 0C12.4411 0 13.5512 0.457089 14.4654 1.37127C15.3796 2.28545 15.8367 3.39552 15.8367 4.70149V14.1045C15.8367 15.4104 15.3796 16.5205 14.4654 17.4347C13.5512 18.3489 12.4411 18.806 11.1352 18.806ZM9.56801 28.2089V24.9571C7.16502 24.6175 5.10838 23.5989 3.39808 21.9011C1.68779 20.2034 0.649279 18.1399 0.282563 15.7108C0.230324 15.2668 0.347862 14.8881 0.635175 14.5746C0.922489 14.2612 1.28816 14.1045 1.73219 14.1045C2.17622 14.1045 2.54868 14.2549 2.84958 14.5558C3.15047 14.8567 3.35264 15.2287 3.45607 15.6716C3.82174 17.5 4.72965 19.0019 6.1798 20.1772C7.62995 21.3526 9.28174 21.9403 11.1352 21.9403C13.0158 21.9403 14.6743 21.3463 16.1109 20.1584C17.5475 18.9705 18.4486 17.4749 18.8143 15.6716C18.9187 15.2276 19.1214 14.8557 19.4223 14.5558C19.7232 14.256 20.0952 14.1055 20.5382 14.1045C20.9811 14.1034 21.3468 14.2601 21.6352 14.5746C21.9235 14.8891 22.0411 15.2678 21.9878 15.7108C21.6221 18.0877 20.5904 20.1381 18.8926 21.8619C17.1949 23.5858 15.1314 24.6175 12.7023 24.9571V28.2089C12.7023 28.653 12.5519 29.0254 12.251 29.3263C11.9501 29.6272 11.5782 29.7772 11.1352 29.7761C10.6922 29.7751 10.3202 29.6246 10.0194 29.3248C9.71846 29.0249 9.56801 28.653 9.56801 28.2089Z" fill="#464646"/>
</svg>
