<svg width="59" height="58" viewBox="0 0 59 58" fill="none" xmlns="http://www.w3.org/2000/svg">
<path d="M24.5353 56.0021C27.4344 56.0021 29.7845 53.652 29.7845 50.7529C29.7845 47.8539 27.4344 45.5037 24.5353 45.5037C21.6363 45.5037 19.2861 47.8539 19.2861 50.7529C19.2861 53.652 21.6363 56.0021 24.5353 56.0021Z" stroke="#FF8000" stroke-width="3.94358" stroke-linecap="round" stroke-linejoin="round"/>
<path d="M47.4045 56.0021C50.3035 56.0021 52.6537 53.652 52.6537 50.7529C52.6537 47.8539 50.3035 45.5037 47.4045 45.5037C44.5054 45.5037 42.1553 47.8539 42.1553 50.7529C42.1553 53.652 44.5054 56.0021 47.4045 56.0021Z" stroke="#FF8000" stroke-width="3.94358" stroke-linecap="round" stroke-linejoin="round"/>
<path d="M12.3672 9.11099L18.57 28.75C19.5235 31.7681 19.9988 33.2771 20.9153 34.3942C21.7176 35.3817 22.7638 36.1439 23.9457 36.6161C25.2881 37.15 26.8681 37.15 30.0343 37.15H41.9306C45.0968 37.15 46.6768 37.15 48.0161 36.6161C49.2011 36.1439 50.2442 35.3817 51.0496 34.3942C51.9631 33.2771 52.4383 31.7681 53.395 28.75L54.6571 24.7506L55.3977 22.3868L56.4192 19.1465C56.7837 17.9908 56.8708 16.7655 56.6736 15.5699C56.4763 14.3742 56.0001 13.2419 55.2837 12.2646C54.5672 11.2872 53.6306 10.4924 52.5497 9.94455C51.4688 9.39666 50.2741 9.11109 49.0623 9.11099H12.3672ZM12.3672 9.11099L12.3333 8.99681C12.2029 8.56033 12.0589 8.12808 11.9012 7.70071C11.2765 6.11928 10.217 4.7469 8.84528 3.74213C7.47355 2.73735 5.84552 2.1412 4.1493 2.02255C3.83145 1.99786 3.48274 1.99786 2.78223 1.99786" stroke="#FF8000" stroke-width="3.94358" stroke-linecap="round" stroke-linejoin="round"/>
</svg>
