<svg width="47" height="56" viewBox="0 0 47 56" fill="none" xmlns="http://www.w3.org/2000/svg">
<path d="M2.11523 11.7375V46.0758C2.11523 48.1774 2.95011 50.193 4.43618 51.679C5.92226 53.1651 7.93782 54 10.0395 54H36.4535C38.5552 54 40.5707 53.1651 42.0568 51.679C43.5429 50.193 44.3777 48.1774 44.3777 46.0758V32.8687M2.11523 11.7375V9.09607M2.11523 11.7375H36.4535C38.5552 11.7375 40.5707 12.5723 42.0568 14.0584C43.5429 15.5445 44.3777 17.5601 44.3777 19.6617V22.3031" stroke="#FF8000" stroke-width="3.96211" stroke-linecap="round"/>
<path d="M15.3223 30.2273C15.3223 28.6601 15.787 27.128 16.6577 25.8249C17.5285 24.5217 18.7661 23.5061 20.214 22.9063C21.662 22.3065 23.2553 22.1496 24.7924 22.4554C26.3296 22.7611 27.7415 23.5158 28.8498 24.6241C29.958 25.7323 30.7127 27.1442 31.0184 28.6814C31.3242 30.2185 31.1673 31.8118 30.5675 33.2598C29.9677 34.7078 28.9521 35.9453 27.6489 36.8161C26.3458 37.6868 24.8137 38.1515 23.2465 38.1515" stroke="#FF8000" stroke-width="3.96211" stroke-linecap="round"/>
<path d="M39.0955 11.7374V13.7185H41.0766V11.7374H39.0955ZM4.94213 13.7185H39.0955V9.75639H4.94477L4.94213 13.7185ZM41.0766 11.7374V7.2629H37.1145V11.7374H41.0766ZM32.7852 0.0729947L4.26593 4.14604L4.82591 8.06853L33.3452 3.99812L32.7852 0.0729947ZM4.26593 4.14604C3.11866 4.30904 2.06886 4.88095 1.30979 5.75651C0.55071 6.63207 0.133435 7.75235 0.134769 8.91114H4.09688C4.09621 8.70663 4.16972 8.50881 4.30377 8.35436C4.43783 8.19991 4.62334 8.09665 4.82591 8.06853L4.26593 4.14604ZM41.0766 7.2629C41.0764 6.22225 40.8527 5.19377 40.4205 4.24711C39.9883 3.30045 39.3578 2.4577 38.5716 1.77592C37.7853 1.09415 36.8618 0.589268 35.8635 0.295463C34.8652 0.00165804 33.8154 -0.0742103 32.7852 0.0729947L33.3452 3.99812C33.8134 3.93115 34.2906 3.96292 34.7444 4.09639C35.1982 4.22986 35.618 4.45927 35.9754 4.7691C36.3328 5.07893 36.6195 5.46193 36.816 5.89219C37.0125 6.32244 37.1143 6.78989 37.1145 7.2629H41.0766ZM4.94477 9.75639C4.83333 9.75674 4.72291 9.73505 4.61988 9.69256C4.51685 9.65007 4.42325 9.58763 4.34444 9.50883C4.26564 9.43002 4.2032 9.33642 4.16071 9.23339C4.11822 9.13036 4.09653 9.02258 4.09688 8.91114H0.134769C0.134422 9.5429 0.258599 10.1659 0.500201 10.7496C0.741803 11.3334 1.09609 11.8637 1.54281 12.3105C1.98953 12.7572 2.51992 13.1115 3.10365 13.3531C3.68738 13.5947 4.31037 13.7188 4.94213 13.7185L4.94477 9.75639Z" fill="#FF8000"/>
<path d="M17.9639 46.0758H28.5295" stroke="#FF8000" stroke-width="3.96211" stroke-linecap="round"/>
</svg>
