<svg width="64" height="64" viewBox="0 0 64 64" fill="none" xmlns="http://www.w3.org/2000/svg">
<path d="M32.3397 63.5145C14.9617 63.5145 0.825195 49.378 0.825195 32C0.825195 14.622 14.9617 0.485474 32.3397 0.485474C49.7177 0.485474 63.8542 14.622 63.8542 32C63.8542 49.378 49.7177 63.5145 32.3397 63.5145ZM32.3397 4.98755C17.4379 4.98755 5.32727 17.0981 5.32727 32C5.32727 46.9019 17.4379 59.0124 32.3397 59.0124C47.2416 59.0124 59.3522 46.9019 59.3522 32C59.3522 17.0981 47.2416 4.98755 32.3397 4.98755Z" fill="#FF8000"/>
<path d="M32.3401 16.2427C27.3428 16.2427 23.3359 20.2496 23.3359 25.2469H27.838C27.838 22.7707 29.8639 20.7448 32.3401 20.7448C34.8162 20.7448 36.8422 22.7707 36.8422 25.2469C36.8422 29.749 30.0891 29.2087 30.0891 36.5021H34.5911C34.5911 31.4598 41.3442 30.8745 41.3442 25.2469C41.3442 20.2496 37.3374 16.2427 32.3401 16.2427Z" fill="#FF8000"/>
<path d="M32.3391 48.2976C33.8807 48.2976 35.1304 47.0479 35.1304 45.5063C35.1304 43.9647 33.8807 42.715 32.3391 42.715C30.7976 42.715 29.5479 43.9647 29.5479 45.5063C29.5479 47.0479 30.7976 48.2976 32.3391 48.2976Z" fill="#FF8000"/>
<path d="M25.587 27.498C26.8302 27.498 27.838 26.4902 27.838 25.2469C27.838 24.0037 26.8302 22.9959 25.587 22.9959C24.3438 22.9959 23.3359 24.0037 23.3359 25.2469C23.3359 26.4902 24.3438 27.498 25.587 27.498Z" fill="#FF8000"/>
<path d="M32.3399 38.7532C33.5831 38.7532 34.5909 37.7454 34.5909 36.5021C34.5909 35.2589 33.5831 34.2511 32.3399 34.2511C31.0967 34.2511 30.0889 35.2589 30.0889 36.5021C30.0889 37.7454 31.0967 38.7532 32.3399 38.7532Z" fill="#FF8000"/>
</svg>
