<svg width="57" height="58" viewBox="0 0 57 58" fill="none" xmlns="http://www.w3.org/2000/svg">
<path d="M28.5901 53.1487H22.6301C14.8819 53.1487 8.72316 47.1598 8.72316 39.6254V31.8978H12.6966V39.6254C12.6966 45.0347 17.0673 49.2849 22.6301 49.2849H28.5901V53.1487ZM52.4305 57.0125H56.8013L47.6625 35.7616H43.2917L34.1529 57.0125H38.5236L40.113 53.1487H50.6425L52.4305 57.0125ZM41.901 49.2849L45.4771 40.7845L49.0531 49.2849H41.901ZM52.4305 28.0341H48.4571V20.3065C48.4571 14.8972 44.0864 10.647 38.5236 10.647H30.5768V6.78323H38.5236C46.2718 6.78323 52.4305 12.7721 52.4305 20.3065V28.0341ZM24.6168 8.71512V4.85134H14.6833V0.987549H10.7099V4.85134H0.776367V8.71512H17.0673C16.67 10.4538 15.4779 13.5449 12.6966 16.4427C11.5045 15.0904 10.5112 13.738 9.91518 12.5789H5.34577C6.14045 14.5108 7.53114 16.8291 9.51784 18.9542C7.92848 20.3065 5.54444 21.4656 2.76307 22.4316L4.15375 26.1022C7.72981 24.7498 10.5112 23.2043 12.6966 21.6588C14.8819 23.3975 17.6633 24.943 21.2394 26.1022L22.6301 22.4316C19.8487 21.4656 17.4646 20.1133 15.6766 18.9542C19.4513 15.0904 20.6434 11.0334 21.0407 8.71512H24.6168Z" fill="#FF8000"/>
</svg>
